<svg width="143" height="104" viewBox="0 0 143 104" fill="none" xmlns="http://www.w3.org/2000/svg">
<path d="M2.34619 65.5364C2.34619 63.6034 3.9132 62.0364 5.84619 62.0364H137.188C139.121 62.0364 140.688 63.6034 140.688 65.5364V101.644H2.34619V65.5364Z" fill="#F7F4E8" stroke="black" stroke-width="3"/>
<path d="M5.50685 62.2116L32.641 42.7275L112.357 42.7276L137.767 62.2116H5.50685ZM112.223 42.6244L112.224 42.6256C112.224 42.6252 112.223 42.6248 112.223 42.6244L112.527 42.2276L112.223 42.6244Z" fill="#F7F4E8" stroke="black" stroke-width="3" stroke-linejoin="round"/>
<mask id="path-3-inside-1_1_1442" fill="white">
<path fill-rule="evenodd" clip-rule="evenodd" d="M89.2406 0.222412H53.7935V33.6317H40.5997L71.5171 56.4192L102.434 33.6317H89.2406V0.222412Z"/>
</mask>
<path fill-rule="evenodd" clip-rule="evenodd" d="M89.2406 0.222412H53.7935V33.6317H40.5997L71.5171 56.4192L102.434 33.6317H89.2406V0.222412Z" fill="#FF7979"/>
<path d="M53.7935 0.222412V-2.77759H50.7935V0.222412H53.7935ZM89.2406 0.222412H92.2406V-2.77759H89.2406V0.222412ZM53.7935 33.6317V36.6317H56.7935V33.6317H53.7935ZM40.5997 33.6317V30.6317H31.473L38.8198 36.0467L40.5997 33.6317ZM71.5171 56.4192L69.7372 58.8341L71.5171 60.146L73.297 58.8341L71.5171 56.4192ZM102.434 33.6317L104.214 36.0466L111.561 30.6317H102.434V33.6317ZM89.2406 33.6317H86.2406V36.6317H89.2406V33.6317ZM53.7935 3.22241H89.2406V-2.77759H53.7935V3.22241ZM56.7935 33.6317V0.222412H50.7935V33.6317H56.7935ZM40.5997 36.6317H53.7935V30.6317H40.5997V36.6317ZM73.297 54.0043L42.3796 31.2168L38.8198 36.0467L69.7372 58.8341L73.297 54.0043ZM100.655 31.2168L69.7372 54.0043L73.297 58.8341L104.214 36.0466L100.655 31.2168ZM89.2406 36.6317H102.434V30.6317H89.2406V36.6317ZM86.2406 0.222412V33.6317H92.2406V0.222412H86.2406Z" fill="black" mask="url(#path-3-inside-1_1_1442)"/>
</svg>